G04 #@! TF.FileFunction,Soldermask,Bot*
%FSLAX46Y46*%
G04 Gerber Fmt 4.6, Leading zero omitted, Abs format (unit mm)*
G04 Created by KiCad (PCBNEW 4.0.3-stable) date 08/27/16 15:36:11*
%MOMM*%
%LPD*%
G01*
G04 APERTURE LIST*
%ADD10C,0.100000*%
%ADD11C,1.620000*%
%ADD12C,1.120000*%
%ADD13O,1.270000X0.970000*%
%ADD14O,1.020000X1.570000*%
%ADD15R,2.052000X2.052000*%
%ADD16O,2.052000X2.052000*%
%ADD17R,1.747200X1.747200*%
%ADD18O,1.747200X1.747200*%
%ADD19C,1.521140*%
%ADD20C,3.019740*%
%ADD21C,1.220000*%
%ADD22C,2.020000*%
%ADD23R,2.052000X1.747200*%
%ADD24O,2.052000X1.747200*%
%ADD25C,5.900000*%
G04 APERTURE END LIST*
D10*
X73000000Y-189000000D02*
X73000000Y-112000000D01*
X73000000Y-189000000D02*
G75*
G03X77000000Y-193000000I4000000J0D01*
G01*
X154000000Y-193000000D02*
X77000000Y-193000000D01*
X154000000Y-193000000D02*
G75*
G03X158000000Y-189000000I0J4000000D01*
G01*
X158000000Y-112000000D02*
X158000000Y-189000000D01*
X158000000Y-112000000D02*
G75*
G03X154000000Y-108000000I-4000000J0D01*
G01*
X131000000Y-108000000D02*
X154000000Y-108000000D01*
X131000000Y-115000000D02*
X131000000Y-112000000D01*
X131000000Y-108000000D02*
G75*
G03X131000000Y-112000000I0J-2000000D01*
G01*
X82000000Y-115000000D02*
X131000000Y-115000000D01*
X81000000Y-114000000D02*
G75*
G03X82000000Y-115000000I1000000J0D01*
G01*
X81000000Y-112000000D02*
X81000000Y-114000000D01*
X81000000Y-112000000D02*
G75*
G03X73000000Y-112000000I-4000000J0D01*
G01*
D11*
X151400000Y-165000000D03*
D12*
X84600000Y-165000000D03*
D13*
X148500900Y-112562540D03*
X143500900Y-112562540D03*
D14*
X149500900Y-109862540D03*
X142500900Y-109862540D03*
D15*
X75000000Y-182000000D03*
D16*
X77540000Y-182000000D03*
D17*
X91080000Y-150000000D03*
D18*
X91080000Y-152540000D03*
X88540000Y-150000000D03*
X88540000Y-152540000D03*
X86000000Y-150000000D03*
X86000000Y-152540000D03*
X83460000Y-150000000D03*
X83460000Y-152540000D03*
X80920000Y-150000000D03*
X80920000Y-152540000D03*
D19*
X145997880Y-119887140D03*
X145997880Y-122427140D03*
X145997880Y-124459140D03*
X145997880Y-126999140D03*
D20*
X148664880Y-116839140D03*
X148664880Y-130555140D03*
D17*
X147000000Y-145000000D03*
D18*
X149540000Y-145000000D03*
X147000000Y-147540000D03*
X149540000Y-147540000D03*
X147000000Y-150080000D03*
X149540000Y-150080000D03*
X147000000Y-152620000D03*
X149540000Y-152620000D03*
X147000000Y-155160000D03*
X149540000Y-155160000D03*
X147000000Y-157700000D03*
X149540000Y-157700000D03*
D21*
X138000000Y-110000000D03*
X136000000Y-110000000D03*
X134000000Y-110000000D03*
D22*
X140100000Y-110000000D03*
X131900000Y-110000000D03*
D23*
X75000000Y-118000000D03*
D24*
X75000000Y-120540000D03*
X75000000Y-123080000D03*
X75000000Y-125620000D03*
X75000000Y-128160000D03*
X75000000Y-130700000D03*
X75000000Y-133240000D03*
X75000000Y-135780000D03*
X75000000Y-138320000D03*
X75000000Y-140860000D03*
X75000000Y-143400000D03*
X75000000Y-145940000D03*
X75000000Y-148480000D03*
X75000000Y-151020000D03*
X75000000Y-153560000D03*
X75000000Y-156100000D03*
X75000000Y-158640000D03*
X75000000Y-161180000D03*
X75000000Y-163720000D03*
X75000000Y-166260000D03*
D25*
X154000000Y-112000000D03*
X77000000Y-189000000D03*
X154000000Y-189000000D03*
X77000000Y-112000000D03*
M02*
