M48
;DRILL file {KiCad 4.0.3-stable} date 08/27/16 15:36:14
;FORMAT={-:-/ absolute / metric / decimal}
FMAT,2
METRIC,TZ
T1C0.300
T2C0.400
T3C0.500
T4C0.550
T5C0.800
T6C1.001
T7C1.016
T8C1.100
T9C1.500
T10C1.600
T11C2.301
T12C3.900
%
G90
G05
M71
T1
X77.Y-121.75
X79.Y-119.
X80.Y-158.75
X80.5Y-134.5
X81.Y-186.
X82.25Y-117.
X83.25Y-164.
X83.5Y-147.75
X86.Y-173.
X87.25Y-139.
X88.4Y-171.4
X88.75Y-183.25
X89.Y-180.25
X91.2Y-171.6
X93.75Y-171.
X94.5Y-125.75
X98.25Y-133.
X99.Y-137.
X99.25Y-142.
X99.25Y-162.75
X100.Y-179.
X100.Y-190.
X102.Y-188.5
X106.Y-158.5
X108.9Y-146.3
X109.25Y-158.5
X110.75Y-165.75
X111.5Y-187.5
X111.75Y-175.75
X113.2Y-137.
X114.25Y-149.25
X114.8Y-138.6
X115.Y-184.
X115.Y-185.
X115.Y-186.
X115.Y-189.
X117.25Y-162.5
X118.4Y-116.6
X119.Y-118.75
X119.8Y-158.9
X120.Y-131.5
X120.25Y-167.25
X120.75Y-120.25
X121.Y-115.8
X122.Y-123.5
X122.5Y-162.5
X123.25Y-120.25
X125.Y-172.75
X125.75Y-162.75
X127.Y-131.75
X127.5Y-148.5
X128.Y-171.
X129.4Y-115.8
X130.5Y-166.75
X132.25Y-112.25
X132.4Y-156.
X133.25Y-173.25
X133.4Y-176.2
X136.25Y-163.
X137.25Y-113.5
X137.25Y-173.25
X141.2Y-121.
X144.Y-188.5
X144.8Y-154.4
X147.Y-162.5
X147.Y-192.
X148.4Y-173.4
X148.75Y-183.5
X149.25Y-167.
X150.25Y-159.5
X152.5Y-148.
X154.Y-161.2
X157.Y-121.
X157.Y-140.
X157.Y-167.
X157.Y-182.
T2
X77.Y-137.25
X77.75Y-136.75
X77.75Y-139.25
X78.5Y-138.5
X79.Y-131.
X80.Y-131.
X82.75Y-165.4
X88.597Y-137.558
X91.5Y-165.
X92.Y-151.5
X92.062Y-163.615
X92.194Y-144.5
X92.25Y-139.75
X92.25Y-141.75
X92.5Y-147.5
X92.716Y-164.868
X92.728Y-164.056
X93.519Y-163.937
X93.538Y-147.361
X93.75Y-138.75
X93.796Y-148.667
X94.75Y-140.5
X94.761Y-146.141
X97.076Y-145.076
X97.75Y-143.25
X97.955Y-167.602
X98.Y-184.
X98.75Y-131.
X98.914Y-135.4
X99.7Y-135.249
X100.4Y-133.21
X100.5Y-135.25
X101.25Y-131.25
X101.701Y-140.451
X102.3Y-190.25
X102.725Y-135.001
X103.Y-134.
X103.146Y-135.681
X103.244Y-164.009
X104.229Y-163.693
X104.5Y-178.75
X104.726Y-164.853
X105.25Y-176.5
X105.5Y-165.25
X106.75Y-129.
X106.75Y-165.296
X107.Y-134.5
X107.Y-151.25
X111.75Y-184.75
X112.585Y-184.149
X113.815Y-145.914
X114.5Y-146.328
X115.256Y-146.067
X115.899Y-146.738
X116.456Y-145.884
X117.098Y-146.362
X117.375Y-151.052
X117.441Y-183.899
X117.54Y-184.92
X117.684Y-117.566
X117.887Y-146.232
X118.174Y-151.
X118.686Y-146.285
X119.02Y-174.48
X119.283Y-151.499
X119.441Y-146.02
X119.665Y-152.7
X119.8Y-120.2
X120.242Y-145.961
X120.294Y-146.906
X120.51Y-152.792
X121.Y-154.75
X121.093Y-146.868
X121.283Y-152.128
X121.878Y-147.02
X121.968Y-152.54
X122.677Y-147.066
X122.71Y-152.24
X123.Y-119.1
X123.045Y-151.514
X123.16Y-146.429
X123.307Y-155.402
X123.881Y-145.95
X124.2Y-155.5
X125.314Y-156.042
X125.489Y-155.212
X126.709Y-154.669
X127.5Y-154.55
X128.751Y-132.422
X129.25Y-146.
X132.Y-128.
X134.25Y-169.25
X135.Y-161.25
X137.25Y-169.25
X137.5Y-161.
X138.Y-138.
X138.Y-142.
X145.151Y-172.75
X145.203Y-166.338
X145.75Y-174.
X145.926Y-166.676
X151.Y-140.75
X151.421Y-151.336
X151.982Y-149.713
X152.397Y-153.22
X152.796Y-155.75
X153.195Y-158.25
X154.15Y-135.
X155.75Y-140.75
T5
X134.Y-110.
X136.Y-110.
X138.Y-110.
T6
X145.998Y-119.887
X145.998Y-122.427
X145.998Y-124.459
X145.998Y-126.999
T7
X75.Y-118.
X75.Y-120.54
X75.Y-123.08
X75.Y-125.62
X75.Y-128.16
X75.Y-130.7
X75.Y-133.24
X75.Y-135.78
X75.Y-138.32
X75.Y-140.86
X75.Y-143.4
X75.Y-145.94
X75.Y-148.48
X75.Y-151.02
X75.Y-153.56
X75.Y-156.1
X75.Y-158.64
X75.Y-161.18
X75.Y-163.72
X75.Y-166.26
X75.Y-182.
X77.54Y-182.
X80.92Y-150.
X80.92Y-152.54
X83.46Y-150.
X83.46Y-152.54
X86.Y-150.
X86.Y-152.54
X88.54Y-150.
X88.54Y-152.54
X91.08Y-150.
X91.08Y-152.54
X147.Y-145.
X147.Y-147.54
X147.Y-150.08
X147.Y-152.62
X147.Y-155.16
X147.Y-157.7
X149.54Y-145.
X149.54Y-147.54
X149.54Y-150.08
X149.54Y-152.62
X149.54Y-155.16
X149.54Y-157.7
T8
X84.6Y-165.
T9
X131.9Y-110.
X140.1Y-110.
T10
X151.4Y-165.
T11
X148.665Y-116.839
X148.665Y-130.555
T12
X77.Y-112.
X77.Y-189.
X154.Y-112.
X154.Y-189.
T3
X142.501Y-109.538G85X142.501Y-110.188
G05
X149.501Y-109.538G85X149.501Y-110.188
G05
T4
X143.651Y-112.563G85X143.351Y-112.563
G05
X148.651Y-112.563G85X148.351Y-112.563
G05
T0
M30
